<svg width="40" height="40" viewBox="0 0 40 40" fill="none" xmlns="http://www.w3.org/2000/svg">
<g clip-path="url(#clip0_22_724)">
<path d="M37.893 21.2022C37.893 31.0181 29.9355 38.9756 20.1188 38.9756C10.3022 38.9756 2.34375 31.0189 2.34375 21.2022C2.34375 11.3847 10.3013 3.42725 20.1179 3.42725C29.9345 3.42725 37.893 11.3847 37.893 21.2022Z" fill="#F2F2F2"/>
<path d="M16.3072 19.2449C16.5797 18.859 16.7163 18.4865 16.7163 18.1249C16.7163 17.7665 16.598 17.4658 16.3605 17.2233C16.1255 16.9824 15.8213 16.8616 15.4505 16.8616C14.773 16.8616 14.1288 17.345 13.5221 18.3116L11.5938 17.1691C12.0979 16.3875 12.6512 15.7958 13.2521 15.395C13.8546 14.9933 14.6212 14.7925 15.5521 14.7925C16.4812 14.7925 17.3005 15.0883 18.0046 15.6808C18.7096 16.2717 19.063 17.0758 19.063 18.0942C19.063 18.6492 18.9213 19.1817 18.638 19.6908C18.3538 20.2 17.833 20.8517 17.0705 21.6442L15.1271 23.6659H19.3863V25.8242H11.7787V24.0359L14.9421 20.795C15.5805 20.1466 16.0347 19.6307 16.3072 19.2449Z" fill="#40596B"/>
<path d="M25.1093 21.1652V19.2844H27.4234V21.1652H28.6427V23.2485H27.4234V25.8252H25.1093V23.2485H20.7734V21.4127L24.6159 15.041H27.2393L23.5827 21.1652H25.1093Z" fill="#40596B"/>
<path d="M19.3533 10.6948L20.6841 8.34142C15.7416 5.53892 9.67578 6.58142 5.92578 10.5173C6.19164 9.56478 6.57078 8.62478 7.07992 7.72392C10.3883 1.87392 17.7933 -0.191074 23.6341 3.12142L24.9649 0.768066L27.3074 8.65056L19.3533 10.6948Z" fill="#FF7058"/>
<path d="M11.4025 27.1188L8.7 27.1429C8.74336 32.8229 12.6784 37.5546 17.9616 38.8354C17.0041 39.0796 16 39.2213 14.9666 39.2313C8.24664 39.2913 2.755 33.9122 2.7025 27.1972L0 27.2213L5.655 21.2529L11.4025 27.1188Z" fill="#FFD15C"/>
<path d="M29.6012 25.792L30.9737 28.1212C35.8712 25.242 38.0012 19.4687 36.4687 14.2537C37.1603 14.9603 37.7837 15.7578 38.3095 16.6478C41.722 22.4369 39.8079 29.8837 34.0195 33.2869L35.3912 35.6144L27.3945 33.7019L29.6012 25.792Z" fill="#84DBFF"/>
<path d="M30.3856 17.0727V19.1836H29.2939V13.7844H30.3856V15.7053C30.7156 15.3703 31.0847 15.2019 31.4947 15.2019C31.9047 15.2019 32.2497 15.3486 32.5314 15.6394C32.813 15.9294 32.953 16.3178 32.953 16.8028V19.1819H31.8622V17.0419C31.8622 16.4411 31.6406 16.1403 31.1997 16.1403C30.9814 16.1403 30.7914 16.2203 30.6289 16.3778C30.4664 16.5352 30.3856 16.7669 30.3856 17.0727Z" fill="#40596B"/>
</g>
<defs>
<clipPath id="clip0_22_724">
<rect width="40" height="40" fill="white"/>
</clipPath>
</defs>
</svg>
