<svg width="40" height="40" viewBox="0 0 40 40" fill="none" xmlns="http://www.w3.org/2000/svg">
<g clip-path="url(#clip0_143_3321)">
<path d="M34.1508 5.85314C26.3518 -1.94584 13.6579 -1.94584 5.85888 5.85314C2.08104 9.63248 0 14.6562 0 19.9991C0 25.3419 2.08104 30.3656 5.85888 34.1435C9.75916 38.0438 14.882 39.9931 20.0048 39.9931C25.1276 39.9931 30.2505 38.0438 34.1507 34.1435C41.9497 26.3445 41.9497 13.6536 34.1508 5.85314ZM31.9597 31.9524C25.3678 38.5442 14.6418 38.5442 8.04992 31.9524C4.85786 28.7603 3.09909 24.5145 3.09909 19.9991C3.09909 15.4836 4.85786 11.2378 8.04992 8.04418C14.6418 1.45232 25.3678 1.45388 31.9597 8.04418C38.55 14.636 38.55 25.3621 31.9597 31.9524Z" fill="#BFA5A3"/>
<path d="M26.6828 24.2834L22.296 19.9028L26.6828 15.5223C27.2871 14.918 27.2872 13.9371 26.6844 13.3312C26.0785 12.7237 25.0977 12.7253 24.4918 13.3296L20.1019 17.7133L15.712 13.3296C15.1062 12.7253 14.1253 12.7237 13.5194 13.3312C12.9151 13.937 12.9151 14.9179 13.521 15.5223L17.9078 19.9028L13.521 24.2834C12.9151 24.8877 12.9151 25.8686 13.5194 26.4745C13.8216 26.7782 14.2198 26.9285 14.6166 26.9285C15.0133 26.9285 15.4099 26.7767 15.7121 26.476L20.102 22.0923L24.4919 26.476C24.7941 26.7782 25.1907 26.9285 25.5874 26.9285C25.9842 26.9285 26.3824 26.7767 26.6846 26.4745C27.2887 25.8686 27.2887 24.8877 26.6828 24.2834Z" fill="#BFA5A3"/>
</g>
<defs>
<clipPath id="clip0_143_3321">
<rect width="40" height="40" fill="white"/>
</clipPath>
</defs>
</svg>
