<svg width="64" height="64" viewBox="0 0 64 64" fill="none" xmlns="http://www.w3.org/2000/svg">
<circle cx="32" cy="32" r="32" fill="#CDE5FE"/>
<g clip-path="url(#clip0_823_63243)">
<path d="M47.9319 42.8491H51.9997V35.3915L45.898 25.8999H38.4404V42.8491H41.1523" fill="#FDB62F"/>
<path d="M18.1015 42.8482H12.6777V21.1533H38.4405V42.8482H24.8811" fill="#FDB62F"/>
<path d="M16.7455 39.4585H12.6777V40.8144H16.7455V39.4585Z" fill="#F46B27"/>
<path d="M38.4407 39.4585H26.2373V40.8144H38.4407V39.4585Z" fill="#F46B27"/>
<path d="M52 39.4585H49.2881V40.8144H52V39.4585Z" fill="#DBDBDB"/>
<path d="M38.4407 23.187H14.7119V24.5429H38.4407V23.187Z" fill="#F46B27"/>
<path d="M21.4914 46.2372C23.3636 46.2372 24.8813 44.7195 24.8813 42.8474C24.8813 40.9752 23.3636 39.4575 21.4914 39.4575C19.6192 39.4575 18.1016 40.9752 18.1016 42.8474C18.1016 44.7195 19.6192 46.2372 21.4914 46.2372Z" fill="#126099"/>
<path d="M44.5422 46.2372C46.4143 46.2372 47.932 44.7195 47.932 42.8474C47.932 40.9752 46.4143 39.4575 44.5422 39.4575C42.67 39.4575 41.1523 40.9752 41.1523 42.8474C41.1523 44.7195 42.67 46.2372 44.5422 46.2372Z" fill="#126099"/>
<path d="M22.1694 42.1689H20.8135V43.5249H22.1694V42.1689Z" fill="#DBDBDB"/>
<path d="M45.2202 42.1689H43.8643V43.5249H45.2202V42.1689Z" fill="#DBDBDB"/>
<path d="M24.2035 17.7622H14.7119V19.1181H24.2035V17.7622Z" fill="#DBDBDB"/>
<path d="M13.3559 17.7622H12V19.1181H13.3559V17.7622Z" fill="#DBDBDB"/>
<path d="M47.6405 28.6108H41.1523V34.7126H51.5659L47.6405 28.6108Z" fill="#87CED9"/>
<path d="M39.7964 25.8979H38.4404V42.8471H39.7964V25.8979Z" fill="#FFA83D"/>
<path d="M51.5659 34.7122L47.8845 28.9834C46.0751 31.1305 43.7625 32.7956 41.1523 33.8308V34.7121H51.5659V34.7122Z" fill="#6CBBC7"/>
</g>
<defs>
<clipPath id="clip0_823_63243">
<rect width="40" height="40" fill="white" transform="translate(12 12)"/>
</clipPath>
</defs>
</svg>
