<svg width="40" height="40" viewBox="0 0 40 40" fill="none" xmlns="http://www.w3.org/2000/svg">
<g clip-path="url(#clip0_22_767)">
<path d="M39.5333 22.6563L32.7365 32.5001C31.424 34.2579 29.3145 35.3126 27.1114 35.3126H7.03328L5.81445 22.9845L7.03328 21.883C8.81453 20.3126 9.98641 19.2346 12.2833 18.6955C15.0254 18.0627 17.752 18.8361 19.5567 20.4767C20.0255 20.8752 20.3067 21.2502 20.8927 21.2502H21.1739C26.6114 21.2502 21.6973 21.2502 27.1114 21.2502C28.4005 21.2502 29.4552 22.3049 29.4552 23.594C29.4552 24.883 28.4005 25.9377 27.1114 25.9377H22.3458C21.6895 25.9377 21.1739 26.4533 21.1739 27.1096C21.1739 27.7659 21.6895 28.2815 22.3458 28.2815H27.8849C28.3302 28.2815 29.174 28.0002 29.6193 27.5315L35.9474 19.6565C36.7442 18.7893 38.0802 18.6487 39.0412 19.3518C40.0957 20.1252 40.3067 21.6251 39.5333 22.6563Z" fill="#FEDBAB"/>
<path d="M21.1738 27.1094V21.25C26.6113 21.25 21.6973 21.25 27.1113 21.25C28.4004 21.25 29.4551 22.3047 29.4551 23.5938C29.4551 24.8828 28.4004 25.9375 27.1113 25.9375H22.3457C21.6894 25.9375 21.1738 26.453 21.1738 27.1094Z" fill="#FEC478"/>
<path d="M39.5332 22.6567L32.7364 32.5006C31.4239 34.2584 29.3145 35.3131 27.1113 35.3131H21.1738V27.1099C21.1738 27.7663 21.6894 28.2818 22.3457 28.2818H27.8848C28.3302 28.2818 29.1739 28.0006 29.6192 27.5318L35.9473 19.6568C36.7441 18.7896 38.0801 18.649 39.0411 19.3521C40.0956 20.1256 40.3066 21.6255 39.5332 22.6567Z" fill="#FEC478"/>
<path d="M7.15724 39.3521L0.125988 25.2897C-0.163544 24.7106 0.0710658 24.0068 0.650128 23.7172L3.24107 22.4218C4.97716 21.5554 7.09083 22.2604 7.95833 23.9942L12.893 33.8635C13.7622 35.6018 13.0589 37.7117 11.3206 38.5808L8.72966 39.8763C8.14474 40.1667 7.4452 39.9264 7.15724 39.3521Z" fill="#17ACE8"/>
<path d="M21.1738 7.03125C17.3066 7.03125 14.0645 10.2734 14.0645 14.1406V15.3906C14.0645 16.047 14.58 16.5625 15.2363 16.5625H27.1113C27.7677 16.5625 28.2832 16.047 28.2832 15.3906V14.1406C28.2832 10.2734 25.0411 7.03125 21.1738 7.03125Z" fill="#1689FC"/>
<path d="M28.2832 14.1406V15.3906C28.2832 16.047 27.7677 16.5625 27.1113 16.5625H21.1738V7.03125C25.0411 7.03125 28.2832 10.2734 28.2832 14.1406Z" fill="#136EF1"/>
<path d="M21.1738 0C18.5958 0 16.4082 2.10945 16.4082 4.6875C16.4082 7.26555 18.5958 9.375 21.1738 9.375C23.7519 9.375 25.9394 7.26555 25.9394 4.6875C25.9394 2.10945 23.7519 0 21.1738 0Z" fill="#17ACE8"/>
<path d="M25.9395 4.6875C25.9395 7.26555 23.7519 9.375 21.1738 9.375V0C23.7519 0 25.9395 2.10945 25.9395 4.6875Z" fill="#1689FC"/>
</g>
<defs>
<clipPath id="clip0_22_767">
<rect width="40" height="40" fill="white"/>
</clipPath>
</defs>
</svg>
