<svg width="64" height="64" viewBox="0 0 64 64" fill="none" xmlns="http://www.w3.org/2000/svg">
<circle cx="32" cy="32" r="32" fill="#FEF6F7"/>
<g clip-path="url(#clip0_56_2024)">
<path fill-rule="evenodd" clip-rule="evenodd" d="M39.7863 18.9908C42.957 19.7067 44.1699 21.5107 45.6906 23.9936H39.7863V18.9908ZM21.2561 24.2021C21.877 24.2021 22.3276 24.4937 22.3276 25.1751C22.3276 25.7498 21.8496 26.2159 21.2592 26.2175H14.7863C14.1945 26.2175 13.7148 26.6845 13.7148 27.26C13.7148 27.8358 14.1945 28.3025 14.7863 28.3025H24.4291C25.0265 28.3025 25.5047 28.7689 25.5047 29.345C25.5047 29.9208 25.0251 30.3874 24.4333 30.3874H14.7863C14.1945 30.3874 13.7148 30.8541 13.7148 31.4299C13.7148 32.0057 14.1945 32.4724 14.7863 32.4724H17.1434V35.5998C17.1434 36.1756 17.623 36.6423 18.2148 36.6423H20.3686C20.7525 38.4823 22.4235 39.8392 24.3934 39.8392C26.3633 39.8392 28.0343 38.4823 28.4182 36.6423H39.2972C39.6811 38.4823 41.3521 39.8392 43.322 39.8392C45.2919 39.8392 46.9629 38.4823 47.3468 36.6423H49.2148C49.8066 36.6423 50.2863 36.1756 50.2863 35.5998V29.345C50.2863 26.2862 46.9704 26.0832 46.9674 26.0785H38.7148C38.123 26.0785 37.6434 25.6119 37.6434 25.0361V18.7812H18.2148C17.623 18.7812 17.1434 19.2479 17.1434 19.8237V22.1172H15.8577C15.2659 22.1172 14.7863 22.5838 14.7863 23.1596C14.7863 23.7354 15.2659 24.2021 15.8577 24.2021H21.2561ZM44.7109 34.4916C45.478 35.2379 45.478 36.4484 44.7109 37.1947C43.4771 38.3952 41.3577 37.5411 41.3577 35.843C41.3577 34.1452 43.4771 33.2911 44.7109 34.4916ZM25.7824 34.4916C26.5494 35.2379 26.5494 36.4484 25.7824 37.1947C24.5485 38.3952 22.4291 37.5411 22.4291 35.843C22.4291 34.1452 24.5485 33.2911 25.7824 34.4916Z" fill="#AF1328"/>
</g>
<defs>
<clipPath id="clip0_56_2024">
<rect width="36.5714" height="36.5714" fill="white" transform="translate(13.7148 13.7148)"/>
</clipPath>
</defs>
</svg>
