<svg width="16" height="16" viewBox="0 0 16 16" fill="none" xmlns="http://www.w3.org/2000/svg">
<g clip-path="url(#clip0_54_1610)">
<path d="M15.9246 6.13699C15.82 5.81301 15.5333 5.5829 15.194 5.55226L10.5858 5.13293L8.76352 0.858778C8.62916 0.545537 8.32315 0.342773 7.98317 0.342773C7.64318 0.342773 7.33718 0.545537 7.20282 0.85951L5.38058 5.13293L0.771576 5.55226C0.43293 5.58363 0.146907 5.81301 0.0417807 6.13699C-0.063346 6.46097 0.0337408 6.81633 0.289919 7.04033L3.77323 10.1017L2.74608 14.6359C2.67092 14.9692 2.80005 15.3139 3.07608 15.5138C3.22445 15.6212 3.39804 15.6759 3.57309 15.6759C3.72402 15.6759 3.87373 15.6352 4.00809 15.5546L7.98317 13.1738L11.9568 15.5546C12.2476 15.7299 12.6141 15.7139 12.8895 15.5138C13.1657 15.3132 13.2947 14.9685 13.2195 14.6359L12.1924 10.1017L15.6757 7.04094C15.9319 6.81633 16.0297 6.46158 15.9246 6.13699Z" fill="#FFC107"/>
</g>
<defs>
<clipPath id="clip0_54_1610">
<rect width="15.9662" height="16" fill="white"/>
</clipPath>
</defs>
</svg>
