<svg width="40" height="40" viewBox="0 0 40 40" fill="none" xmlns="http://www.w3.org/2000/svg">
<path d="M33.2996 29.5009V9.09277L0.543945 10.4975V30.9056C0.543867 31.3732 0.775273 31.8408 1.23809 32.1081L14.2139 39.5997C15.1368 40.1325 16.2738 40.1325 17.1966 39.5997L32.6054 30.7035C33.0682 30.4362 33.2996 29.9685 33.2996 29.5009Z" fill="url(#paint0_linear_56_979)"/>
<path d="M1.23816 9.29586L16.6468 0.399609C17.5696 -0.133203 18.7067 -0.133203 19.6295 0.399609L32.6054 7.89125C33.5309 8.42562 33.5309 9.76156 32.6054 10.2959L17.1967 19.1921C16.2738 19.7249 15.1368 19.7249 14.214 19.1921L1.23816 11.7005C0.312539 11.1662 0.312539 9.83023 1.23816 9.29586Z" fill="url(#paint1_linear_56_979)"/>
<path d="M6.23438 6.41148L22.7841 15.9665L27.1741 13.4319L10.6244 3.87695L6.23438 6.41148Z" fill="#DEA861"/>
<path d="M8.85797 4.89453L25.4077 14.4495L24.5477 14.946L7.99805 5.39102L8.85797 4.89453Z" fill="#CC8241"/>
<path d="M22.7842 15.9662V19.5917L27.1743 17.0571V13.4316L22.7842 15.9662Z" fill="#CC8241"/>
<path d="M37.5466 13.6409L35.0873 12.221C33.9032 11.4004 32.2766 11.449 30.4943 12.5854C27.2611 14.6467 24.6503 19.6848 24.5463 24.0579C24.501 25.9603 24.9233 27.4575 25.6674 28.4464L25.6663 28.4481L29.6467 33.5377C29.7185 33.6293 29.8001 33.6979 29.8889 33.7455L32.356 35.1699L37.5466 13.6409Z" fill="url(#paint2_linear_56_979)"/>
<path d="M39.4567 18.5291C39.4567 13.8058 36.5051 11.7059 32.9269 13.9871C29.6937 16.0483 27.0829 21.0865 26.9789 25.4596C26.9337 27.362 27.3559 28.8592 28.1001 29.8482L28.099 29.8498L32.0794 34.9393C32.6378 35.6534 33.7943 34.9857 34.3527 33.6268L38.3332 23.9411L38.3321 23.9407C39.0401 22.1825 39.4567 20.3009 39.4567 18.5291Z" fill="url(#paint3_linear_56_979)"/>
<path d="M37.7723 17.3815L35.9364 16.3246L35.9364 16.3249C35.2117 15.9408 34.2807 15.9956 33.2651 16.5819C30.9543 17.9161 29.0811 21.4954 29.0811 24.5765C29.0811 26.2704 29.648 27.4595 30.5419 27.9665L30.5413 27.9679L32.2187 28.9364L37.7723 17.3815Z" fill="url(#paint4_linear_56_979)"/>
<path d="M38.3402 24.5919C39.7309 21.3282 39.3614 18.0446 37.5149 17.2579C35.6685 16.4711 33.0443 18.4791 31.6537 21.7429C30.2631 25.0066 30.6326 28.2901 32.479 29.0769C34.3254 29.8636 36.9496 27.8556 38.3402 24.5919Z" fill="#F2EFFA"/>
<defs>
<linearGradient id="paint0_linear_56_979" x1="13.0872" y1="24.546" x2="17.5868" y2="24.546" gradientUnits="userSpaceOnUse">
<stop stop-color="#CC8241"/>
<stop offset="1" stop-color="#DEA861"/>
</linearGradient>
<linearGradient id="paint1_linear_56_979" x1="7.80262" y1="4.53094" x2="24.6533" y2="14.2597" gradientUnits="userSpaceOnUse">
<stop stop-color="#DEA861"/>
<stop offset="1" stop-color="#EBCBA0"/>
</linearGradient>
<linearGradient id="paint2_linear_56_979" x1="30.4113" y1="24.4596" x2="34.7584" y2="16.93" gradientUnits="userSpaceOnUse">
<stop stop-color="#AB2C37"/>
<stop offset="1" stop-color="#FF7A85"/>
</linearGradient>
<linearGradient id="paint3_linear_56_979" x1="26.9756" y1="28.0189" x2="42.267" y2="28.0189" gradientUnits="userSpaceOnUse">
<stop stop-color="#FF4757"/>
<stop offset="1" stop-color="#FF7A85"/>
</linearGradient>
<linearGradient id="paint4_linear_56_979" x1="33.0262" y1="21.3659" x2="34.7458" y2="18.3874" gradientUnits="userSpaceOnUse">
<stop stop-color="#C5BAEB"/>
<stop offset="1" stop-color="#D7D1EB"/>
</linearGradient>
</defs>
</svg>
