<svg width="36" height="38" viewBox="0 0 36 38" fill="none" xmlns="http://www.w3.org/2000/svg">
<path d="M33.5177 21.3927L30.5 18.375H23V32.125C23 33.5057 24.1193 34.625 25.5 34.625V35.875H34.25V23.1605C34.25 22.4975 33.9866 21.8616 33.5177 21.3927Z" fill="#F0915A"/>
<path d="M20.5 34H1.75C1.05961 34 0.5 33.4404 0.5 32.75V10.25C0.5 9.55961 1.05961 9 1.75 9H20.5C21.1904 9 21.75 9.55961 21.75 10.25V32.75C21.75 33.4404 21.1904 34 20.5 34Z" fill="#E64178"/>
<path d="M16.75 34H1.75C1.05961 34 0.5 33.4404 0.5 32.75V10.25C0.5 9.55961 1.05961 9 1.75 9H16.75C17.4404 9 18 9.55961 18 10.25V32.75C18 33.4404 17.4404 34 16.75 34Z" fill="#FF6E91"/>
<path d="M14.25 15.25H4.25C3.55961 15.25 3 14.6904 3 14V12.75C3 12.0596 3.55961 11.5 4.25 11.5H14.25C14.9404 11.5 15.5 12.0596 15.5 12.75V14C15.5 14.6904 14.9404 15.25 14.25 15.25Z" fill="#E64178"/>
<path d="M30.5 11.5H21.75C21.0596 11.5 20.5 12.0596 20.5 12.75V30.25C20.5 30.9404 21.0596 31.5 21.75 31.5H30.5C31.1904 31.5 31.75 30.9404 31.75 30.25V12.75C31.75 12.0596 31.1904 11.5 30.5 11.5Z" fill="#78AF41"/>
<path d="M28 12.75H24.25C23.9048 12.75 23.625 13.0298 23.625 13.375C23.625 14.0654 23.0654 14.625 22.375 14.625C22.0298 14.625 21.75 14.9048 21.75 15.25V27.75C21.75 28.0952 22.0298 28.375 22.375 28.375C23.0654 28.375 23.625 28.9346 23.625 29.625C23.625 29.9702 23.9048 30.25 24.25 30.25H28C28.3452 30.25 28.625 29.9702 28.625 29.625C28.625 28.9346 29.1846 28.375 29.875 28.375C30.2202 28.375 30.5 28.0952 30.5 27.75V15.25C30.5 14.9048 30.2202 14.625 29.875 14.625C29.1846 14.625 28.625 14.0654 28.625 13.375C28.625 13.0298 28.3452 12.75 28 12.75Z" fill="#466932"/>
<path d="M26.125 24.417C27.8509 24.417 29.25 23.0179 29.25 21.292C29.25 19.5661 27.8509 18.167 26.125 18.167C24.3991 18.167 23 19.5661 23 21.292C23 23.0179 24.3991 24.417 26.125 24.417Z" fill="#78AF41"/>
<path d="M5.5 14C4.80961 14 4.25 13.4404 4.25 12.75V11.5H6.75V12.75C6.75 13.4404 6.19039 14 5.5 14Z" fill="#F0915A"/>
<path d="M8 14C7.30961 14 6.75 13.4404 6.75 12.75V11.5H9.25V12.75C9.25 13.4404 8.69039 14 8 14Z" fill="#F0915A"/>
<path d="M10.5 14C9.80961 14 9.25 13.4404 9.25 12.75V11.5H11.75V12.75C11.75 13.4404 11.1904 14 10.5 14Z" fill="#F0915A"/>
<path d="M13 14C12.3096 14 11.75 13.4404 11.75 12.75V11.5H14.25V12.75C14.25 13.4404 13.6904 14 13 14Z" fill="#F0915A"/>
<path d="M5.5 2.125V4C4.80969 4 4.25 4.55969 4.25 5.25V11.5H14.25V2.125H5.5Z" fill="#FAB991"/>
<path d="M14.25 2.125H9.875C9.875 3.16055 10.7145 4 11.75 4H14.25V2.125Z" fill="#F0915A"/>
<path d="M16.75 9H14.25V4C15.6307 4 16.75 5.1193 16.75 6.5V9Z" fill="#F0915A"/>
<path d="M14.25 2.125H5.5C4.80961 2.125 4.25 1.56539 4.25 0.875V0.25H15.5V0.875C15.5 1.56539 14.9404 2.125 14.25 2.125Z" fill="#555A6E"/>
<path d="M14.25 2.125H9.875V0.25H15.5V0.875C15.5 1.56539 14.9404 2.125 14.25 2.125Z" fill="#463C4B"/>
<path d="M34.25 35.875H25.5C24.8096 35.875 24.25 36.4346 24.25 37.125V37.75H35.5V37.125C35.5 36.4346 34.9404 35.875 34.25 35.875Z" fill="#555A6E"/>
<path d="M34.25 35.875H29.875V37.75H35.5V37.125C35.5 36.4346 34.9404 35.875 34.25 35.875Z" fill="#463C4B"/>
<path d="M30.7588 23.0087C30.2707 22.5205 29.4792 22.5205 28.9911 23.0087L28.9344 23.0654C27.9581 24.0417 27.9581 25.6246 28.9344 26.6009L29.8749 27.5415V30.2498C29.8749 32.6661 31.8337 34.6248 34.2499 34.6248V26.4998L30.7588 23.0087Z" fill="#FAB991"/>
<path d="M30.9165 23.167L30.7587 23.3248C30.2705 23.8129 30.2705 24.6044 30.7587 25.0926L30.8912 25.2251C31.1352 25.4691 31.531 25.4691 31.7751 25.2251L32.3748 24.6254L30.9165 23.167Z" fill="#F0915A"/>
</svg>
