<svg width="80" height="80" viewBox="0 0 80 80" fill="none" xmlns="http://www.w3.org/2000/svg">
<path d="M29.318 43.1819L29.3179 43.1818C27.5608 41.4244 27.5606 38.5753 29.3181 36.818C29.3182 36.8179 29.3182 36.8179 29.3182 36.8179L40.5681 25.568C41.4462 24.6899 42.6013 24.2498 43.75 24.2498C47.7165 24.2498 49.7871 29.0766 46.9319 31.9317C46.9319 31.9317 46.9318 31.9318 46.9318 31.9318L38.8639 39.9998L46.9318 48.0679C46.9318 48.0679 46.9318 48.0679 46.9319 48.068C48.6893 49.8253 48.6893 52.6746 46.9319 54.4319L29.318 43.1819ZM29.318 43.1819L40.568 54.4319C42.3252 56.1891 45.1744 56.1892 46.9318 54.432L29.318 43.1819ZM78 40C78 60.9868 60.9868 78 40 78C19.0132 78 2 60.9868 2 40C2 19.0132 19.0132 2 40 2C60.9868 2 78 19.0132 78 40Z" fill="white" stroke="#FE9090" stroke-width="4"/>
</svg>
