<svg width="22" height="20" viewBox="0 0 22 20" fill="none" xmlns="http://www.w3.org/2000/svg">
<path d="M10.9999 11.9999C10.8022 12 10.6088 11.9413 10.4444 11.8314C10.2799 11.7216 10.1518 11.5654 10.0761 11.3827C10.0004 11.1999 9.98063 10.9989 10.0192 10.8049C10.0578 10.6109 10.1531 10.4328 10.2929 10.2929L20.2929 0.292946C20.3855 0.198717 20.4958 0.123753 20.6174 0.072385C20.7391 0.0210165 20.8697 -0.00573932 21.0018 -0.0063374C21.1339 -0.00693549 21.2648 0.0186361 21.3869 0.0689005C21.509 0.119165 21.62 0.193126 21.7134 0.286513C21.8068 0.379901 21.8807 0.490863 21.931 0.612994C21.9813 0.735124 22.0068 0.866002 22.0062 0.99807C22.0056 1.13014 21.9789 1.26078 21.9275 1.38245C21.8761 1.50412 21.8012 1.61441 21.7069 1.70695L11.7069 11.7069C11.6143 11.8001 11.5042 11.874 11.3828 11.9243C11.2614 11.9746 11.1313 12.0003 10.9999 11.9999Z" fill="#121212"/>
<path d="M21 8C20.7349 7.99974 20.4807 7.89429 20.2932 7.70681C20.1057 7.51934 20.0003 7.26514 20 7V2H15C14.7348 2 14.4804 1.89464 14.2929 1.70711C14.1054 1.51957 14 1.26522 14 1C14 0.734784 14.1054 0.48043 14.2929 0.292893C14.4804 0.105357 14.7348 0 15 0H21C21.2651 0.000264738 21.5193 0.105707 21.7068 0.293186C21.8943 0.480665 21.9997 0.734865 22 1V7C21.9997 7.26514 21.8943 7.51934 21.7068 7.70681C21.5193 7.89429 21.2651 7.99974 21 8ZM3 20C2.20462 19.9991 1.44206 19.6828 0.879639 19.1204C0.317218 18.5579 0.000868196 17.7954 0 17V3C0.000868196 2.20462 0.317218 1.44206 0.879639 0.879639C1.44206 0.317218 2.20462 0.000868196 3 0H10C10.2652 0 10.5196 0.105357 10.7071 0.292893C10.8946 0.48043 11 0.734784 11 1C11 1.26522 10.8946 1.51957 10.7071 1.70711C10.5196 1.89464 10.2652 2 10 2H3C2.73486 2.00026 2.48066 2.10571 2.29319 2.29319C2.10571 2.48066 2.00026 2.73486 2 3V17C2.00026 17.2651 2.10571 17.5193 2.29319 17.7068C2.48066 17.8943 2.73486 17.9997 3 18H19C19.2651 17.9997 19.5193 17.8943 19.7068 17.7068C19.8943 17.5193 19.9997 17.2651 20 17V12C20 11.7348 20.1054 11.4804 20.2929 11.2929C20.4804 11.1054 20.7348 11 21 11C21.2652 11 21.5196 11.1054 21.7071 11.2929C21.8946 11.4804 22 11.7348 22 12V17C21.9991 17.7954 21.6828 18.5579 21.1204 19.1204C20.5579 19.6828 19.7954 19.9991 19 20H3Z" fill="#121212"/>
</svg>
