<svg width="209" height="25" viewBox="0 0 209 25" fill="none" xmlns="http://www.w3.org/2000/svg">
<path d="M30.6655 0.334116L26.5279 23.7891H20.8219L23.3245 9.72279L15.583 23.7891H10.9782L8.17525 9.65597L5.70599 23.7891H0L4.13768 0.334116H10.8781L14.6154 16.5722L23.9585 0.334116H30.6655Z" fill="#121212"/>
<path d="M45.9472 19.6461H37.2047L35.0691 23.7891H29.0962L41.7094 0.334116H48.3164L50.4853 12.0616L52.6543 23.7891H46.6146L45.9472 19.6461ZM45.2799 15.3025L43.9117 6.61551L39.4404 15.3025H45.2799Z" fill="#AF1328"/>
<path d="M68.9482 0.334116C71.373 0.334116 73.2194 0.890978 74.4874 2.0047C75.7554 3.09615 76.3894 4.52171 76.3894 6.28139C76.3894 6.7937 76.3449 7.2726 76.2559 7.71809C75.9889 9.2773 75.3104 10.6695 74.2204 11.8946C73.1304 13.1196 71.6733 13.9883 69.8491 14.5007L73.6198 23.7891H67.1797L63.8762 14.935H62.5081L60.9398 23.7891H55.2338L59.3715 0.334116H68.9482ZM70.4164 7.95197C70.4609 7.59558 70.4831 7.3617 70.4831 7.25033C70.4831 6.53755 70.2496 5.99182 69.7824 5.61316C69.3375 5.21222 68.6701 5.01175 67.7803 5.01175H64.2433L63.2088 10.8922H66.7459C67.7914 10.8922 68.6145 10.636 69.2151 10.1237C69.838 9.61142 70.2384 8.8875 70.4164 7.95197Z" fill="#121212"/>
<path d="M78.136 12.0282C78.5364 9.71166 79.3929 7.65127 80.7053 5.84704C82.0401 4.02054 83.6863 2.60611 85.6439 1.60376C87.6015 0.579135 89.7148 0.0668225 91.9839 0.0668225C94.7646 0.0668225 97.0114 0.801879 98.7243 2.27199C100.459 3.74211 101.438 5.74681 101.661 8.28609H95.3874C95.0982 7.32829 94.5643 6.60437 93.7858 6.11433C93.0294 5.60202 92.0951 5.34586 90.9828 5.34586C89.2254 5.34586 87.7016 5.95841 86.4113 7.18351C85.1211 8.38633 84.298 10.0012 83.9421 12.0282C83.8308 12.6519 83.7752 13.1976 83.7752 13.6654C83.7752 15.2246 84.209 16.4608 85.0766 17.3741C85.9442 18.2873 87.1343 18.7439 88.647 18.7439C89.7371 18.7439 90.7492 18.4878 91.6835 17.9755C92.6401 17.4632 93.4409 16.7281 94.0861 15.7703H100.359C99.247 18.3096 97.5675 20.3143 95.3207 21.7844C93.0739 23.2322 90.5601 23.9562 87.7794 23.9562C85.7773 23.9562 84.0311 23.5664 82.5406 22.7868C81.0502 22.0072 79.9045 20.9046 79.1037 19.479C78.3028 18.0534 77.9024 16.394 77.9024 14.5007C77.9024 13.6542 77.9803 12.8301 78.136 12.0282Z" fill="#121212"/>
<path d="M111.729 24.023C109.193 24.023 107.124 23.4773 105.522 22.3858C103.943 21.2721 103.153 19.7017 103.153 17.6748C103.153 17.4743 103.175 17.1736 103.22 16.7727H109.159C109.092 17.6191 109.293 18.2873 109.76 18.7774C110.227 19.2674 110.939 19.5124 111.895 19.5124C112.763 19.5124 113.441 19.3231 113.931 18.9444C114.443 18.5657 114.698 18.0312 114.698 17.3407C114.698 16.6279 114.376 16.0487 113.731 15.6032C113.108 15.1578 112.129 14.6566 110.794 14.0997C109.504 13.5651 108.447 13.064 107.624 12.5962C106.823 12.1062 106.123 11.4491 105.522 10.6249C104.921 9.80075 104.621 8.76499 104.621 7.51762C104.599 5.98069 104.977 4.64422 105.756 3.50822C106.534 2.37223 107.613 1.50352 108.992 0.902113C110.372 0.300704 111.951 0 113.731 0C115.332 0 116.756 0.256156 118.002 0.768468C119.248 1.25851 120.215 1.98242 120.905 2.94023C121.594 3.87575 121.939 4.98947 121.939 6.28139C121.939 6.61551 121.928 6.86053 121.906 7.01645H115.833C115.855 6.92735 115.866 6.7937 115.866 6.61551C115.866 5.99182 115.644 5.49065 115.199 5.11198C114.776 4.71104 114.187 4.51057 113.43 4.51057C112.63 4.51057 111.973 4.71104 111.462 5.11198C110.972 5.49065 110.728 6.0141 110.728 6.68233C110.728 7.35057 111.039 7.91856 111.662 8.38633C112.285 8.83182 113.252 9.35526 114.565 9.95667C115.877 10.5581 116.945 11.1149 117.768 11.6273C118.614 12.1396 119.337 12.8301 119.937 13.6988C120.538 14.5452 120.838 15.5921 120.838 16.8395C120.838 18.2205 120.471 19.4567 119.737 20.5482C119.003 21.6396 117.946 22.4972 116.567 23.1209C115.188 23.7223 113.575 24.023 111.729 24.023Z" fill="#121212"/>
<path d="M134.321 24.023C132.341 24.023 130.595 23.6109 129.082 22.7868C127.592 21.9626 126.435 20.8043 125.612 19.3119C124.789 17.8196 124.378 16.1044 124.378 14.1665C124.378 11.4268 124.967 8.98774 126.146 6.84939C127.325 4.68877 128.96 3.00705 131.051 1.80423C133.165 0.601409 135.556 0 138.225 0C140.228 0 141.985 0.412077 143.498 1.23623C145.01 2.03811 146.178 3.18524 147.001 4.67763C147.824 6.14775 148.236 7.8406 148.236 9.75621C148.236 12.496 147.646 14.9573 146.467 17.1402C145.288 19.3008 143.642 20.9937 141.529 22.2188C139.416 23.4216 137.013 24.023 134.321 24.023ZM135.189 18.7439C136.657 18.7439 137.947 18.3653 139.06 17.6079C140.172 16.8506 141.028 15.8371 141.629 14.5675C142.252 13.2756 142.563 11.8834 142.563 10.391C142.563 8.78727 142.118 7.52876 141.229 6.61551C140.339 5.70226 139.093 5.24563 137.491 5.24563C136.023 5.24563 134.722 5.6243 133.587 6.38163C132.475 7.13896 131.607 8.15245 130.984 9.42209C130.384 10.6695 130.084 12.0505 130.084 13.5651C130.084 15.1689 130.528 16.4385 131.418 17.3741C132.308 18.2873 133.565 18.7439 135.189 18.7439Z" fill="#121212"/>
<path d="M170.364 23.7891H164.658L157.684 9.32185L155.114 23.7891H149.408L153.546 0.334116H159.252L166.226 14.8682L168.795 0.334116H174.501L170.364 23.7891Z" fill="#121212"/>
<path d="M184.343 0.334116L180.206 23.7891H174.5L178.637 0.334116H184.343Z" fill="#121212"/>
<path d="M185.475 12.0282C185.876 9.71166 186.732 7.65127 188.045 5.84704C189.379 4.02054 191.026 2.60611 192.983 1.60376C194.941 0.579135 197.054 0.0668225 199.323 0.0668225C202.104 0.0668225 204.351 0.801879 206.064 2.27199C207.799 3.74211 208.778 5.74681 209 8.28609H202.727C202.438 7.32829 201.904 6.60437 201.125 6.11433C200.369 5.60202 199.434 5.34586 198.322 5.34586C196.565 5.34586 195.041 5.95841 193.751 7.18351C192.46 8.38633 191.637 10.0012 191.281 12.0282C191.17 12.6519 191.115 13.1976 191.115 13.6654C191.115 15.2246 191.548 16.4608 192.416 17.3741C193.283 18.2873 194.474 18.7439 195.986 18.7439C197.076 18.7439 198.089 18.4878 199.023 17.9755C199.979 17.4632 200.78 16.7281 201.425 15.7703H207.699C206.586 18.3096 204.907 20.3143 202.66 21.7844C200.413 23.2322 197.899 23.9562 195.119 23.9562C193.117 23.9562 191.37 23.5664 189.88 22.7868C188.389 22.0072 187.244 20.9046 186.443 19.479C185.642 18.0534 185.242 16.394 185.242 14.5007C185.242 13.6542 185.32 12.8301 185.475 12.0282Z" fill="#121212"/>
</svg>
