<svg width="64" height="64" viewBox="0 0 64 64" fill="none" xmlns="http://www.w3.org/2000/svg">
<circle opacity="0.4" cx="32" cy="32" r="32" fill="#F9D266"/>
<path d="M33.5069 32.6609L37.7069 33.2609C38.8983 33.431 39.9884 34.0252 40.7771 34.9344C41.5657 35.8436 41.9999 37.0067 42 38.2103V50.749H13.25V38.2103C13.2501 37.0067 13.6843 35.8436 14.4729 34.9344C15.2616 34.0252 16.3517 33.431 17.5431 33.2609L21.7419 32.6609L24.5 37.624L27.625 33.874L30.75 37.624L33.5069 32.6609Z" fill="#5E87CA"/>
<path d="M39.1875 47.1684V33.7184C38.721 33.4897 38.2217 33.3353 37.7075 33.2609L33.5075 32.6609L30.75 37.624L27.625 33.874L24.5 37.624L21.7419 32.6609L17.5431 33.2609C16.3517 33.431 15.2616 34.0252 14.4729 34.9344C13.6843 35.8436 13.2501 37.0067 13.25 38.2103V48.4184H37.9375C38.269 48.4184 38.587 48.2867 38.8214 48.0523C39.0558 47.8179 39.1875 47.4999 39.1875 47.1684Z" fill="#78A0D4"/>
<path d="M43.875 27C47.672 27 50.75 23.922 50.75 20.125C50.75 16.328 47.672 13.25 43.875 13.25C40.078 13.25 37 16.328 37 20.125C37 23.922 40.078 27 43.875 27Z" fill="#F0AE42"/>
<path d="M48.5673 15.1098C47.3421 13.9604 45.738 13.2998 44.0587 13.2531C42.3793 13.2065 40.7411 13.7769 39.4539 14.8565C38.1667 15.936 37.3197 17.45 37.0733 19.1118C36.8269 20.7736 37.1981 22.4682 38.1167 23.8748H47.3173C47.6488 23.8748 47.9668 23.7431 48.2012 23.5087C48.4356 23.2743 48.5673 22.9563 48.5673 22.6248V15.1098Z" fill="#F9D266"/>
<path d="M19.5 44.5H35.75V50.75H19.5V44.5Z" fill="#C0DAFC"/>
<path d="M19.5 44.5H33.25V48.875H19.5V44.5Z" fill="#D7EAFF"/>
<path d="M30.125 31.375L33.875 32L30.75 37.625L27.625 33.875C28.288 33.875 28.9239 33.6116 29.3928 33.1428C29.8616 32.6739 30.125 32.038 30.125 31.375Z" fill="#3B5892"/>
<path d="M25.125 31.375L21.375 32L24.5 37.625L27.625 33.875C26.962 33.875 26.3261 33.6116 25.8572 33.1428C25.3884 32.6739 25.125 32.038 25.125 31.375Z" fill="#4C6CB5"/>
<path d="M22.625 22.625H20.75C20.4185 22.625 20.1005 22.7567 19.8661 22.9911C19.6317 23.2255 19.5 23.5435 19.5 23.875C19.5 24.2065 19.6317 24.5245 19.8661 24.7589C20.1005 24.9933 20.4185 25.125 20.75 25.125H22.625" fill="#F2B9A1"/>
<path d="M32.625 22.625H34.5C34.8315 22.625 35.1495 22.7567 35.3839 22.9911C35.6183 23.2255 35.75 23.5435 35.75 23.875C35.75 24.2065 35.6183 24.5245 35.3839 24.7589C35.1495 24.9933 34.8315 25.125 34.5 25.125H32.625" fill="#F2B9A1"/>
<path d="M30.125 29.5405V31.3755C30.125 32.0386 29.8616 32.6745 29.3928 33.1433C28.9239 33.6121 28.288 33.8755 27.625 33.8755C26.962 33.8755 26.3261 33.6121 25.8572 33.1433C25.3884 32.6745 25.125 32.0386 25.125 31.3755V29.5405C25.9018 29.9265 26.7576 30.1268 27.625 30.1255C28.4924 30.1268 29.3482 29.9265 30.125 29.5405Z" fill="#F2B9A1"/>
<path d="M33.2458 22L33.9652 20.3331C34.2431 19.6885 34.3637 18.987 34.317 18.2866C34.2702 17.5862 34.0576 16.907 33.6965 16.305C33.2354 15.5367 32.5519 14.9264 31.7365 14.555L29.9921 13.7606C29.2532 13.4242 28.4508 13.2501 27.639 13.25C26.4102 13.2501 25.2146 13.6486 24.2314 14.3856L23.1608 15.1981C22.7231 15.2919 22.3093 15.4747 21.9451 15.7351C21.581 15.9955 21.2742 16.328 21.0439 16.7119C20.761 17.1832 20.6016 17.7183 20.5805 18.2677C20.5594 18.817 20.6773 19.3627 20.9233 19.8544L21.9958 22H22.0002L23.2502 19.5L24.2502 20.25C25.2239 20.9802 26.4081 21.375 27.6252 21.375C28.8423 21.375 30.0265 20.9802 31.0002 20.25L32.0002 19.5L33.2502 22H33.2458Z" fill="#C18E59"/>
<path d="M22 22V24.5C22 25.9918 22.5926 27.4226 23.6475 28.4775C24.7024 29.5324 26.1332 30.125 27.625 30.125C29.1168 30.125 30.5476 29.5324 31.6025 28.4775C32.6574 27.4226 33.25 25.9918 33.25 24.5V22L32 19.5L31 20.25C30.0263 20.9802 28.8421 21.375 27.625 21.375C26.4079 21.375 25.2237 20.9802 24.25 20.25L23.25 19.5L22 22Z" fill="#FBE1CA"/>
<path d="M18.875 40.75H20.125V50.75H18.875V40.75Z" fill="#3B5892"/>
<path d="M35.125 40.75H36.375V50.75H35.125V40.75Z" fill="#3B5892"/>
<path d="M46.375 18.875V17.625C46.375 17.1277 46.1775 16.6508 45.8258 16.2992C45.4742 15.9475 44.9973 15.75 44.5 15.75V15.125H43.25V15.75C42.7527 15.75 42.2758 15.9475 41.9242 16.2992C41.5725 16.6508 41.375 17.1277 41.375 17.625V18.875C41.375 19.3723 41.5725 19.8492 41.9242 20.2008C42.2758 20.5525 42.7527 20.75 43.25 20.75V23.25C43.0842 23.25 42.9253 23.1842 42.8081 23.0669C42.6908 22.9497 42.625 22.7908 42.625 22.625V21.375H41.375V22.625C41.375 23.1223 41.5725 23.5992 41.9242 23.9508C42.2758 24.3025 42.7527 24.5 43.25 24.5V25.125H44.5V24.5C44.9973 24.5 45.4742 24.3025 45.8258 23.9508C46.1775 23.5992 46.375 23.1223 46.375 22.625V21.375C46.375 20.8777 46.1775 20.4008 45.8258 20.0492C45.4742 19.6975 44.9973 19.5 44.5 19.5V17C44.6658 17 44.8247 17.0658 44.9419 17.1831C45.0592 17.3003 45.125 17.4592 45.125 17.625V18.875H46.375ZM45.125 21.375V22.625C45.125 22.7908 45.0592 22.9497 44.9419 23.0669C44.8247 23.1842 44.6658 23.25 44.5 23.25V20.75C44.6658 20.75 44.8247 20.8158 44.9419 20.9331C45.0592 21.0503 45.125 21.2092 45.125 21.375ZM43.25 19.5C43.0842 19.5 42.9253 19.4342 42.8081 19.3169C42.6908 19.1997 42.625 19.0408 42.625 18.875V17.625C42.625 17.4592 42.6908 17.3003 42.8081 17.1831C42.9253 17.0658 43.0842 17 43.25 17V19.5Z" fill="#FCE797"/>
</svg>
