<svg width="64" height="64" viewBox="0 0 64 64" fill="none" xmlns="http://www.w3.org/2000/svg">
<circle cx="32" cy="32" r="32" fill="#FEF6F7"/>
<g clip-path="url(#clip0_56_2032)">
<path d="M32 16.5941C34.0695 16.5966 36.1101 17.0666 37.9611 17.9671C39.8121 18.8676 41.4229 20.1739 42.6667 21.7833H41.3333V24.3779H45.3333C45.6132 24.3779 45.886 24.2922 46.113 24.133C46.34 23.9738 46.5098 23.7492 46.5983 23.4908L47.9317 19.5989L45.4017 18.7784L44.8725 20.3238C42.8724 17.6866 40.0678 15.7308 36.8583 14.7354C33.6489 13.7399 30.1984 13.7555 26.9985 14.7799C23.7987 15.8043 21.0128 17.7852 19.0379 20.4404C17.0631 23.0956 15.9999 26.2895 16 29.5671H18.6667C18.6707 26.1276 20.0767 22.8301 22.5763 20.3981C25.076 17.966 28.465 16.598 32 16.5941Z" fill="#AF1328"/>
<path d="M45.3334 29.5684C45.3334 32.2912 44.4529 34.9449 42.8166 37.1538C41.1803 39.3626 38.8712 41.0146 36.2164 41.8756C33.5616 42.7366 30.6956 42.7631 28.0245 41.9512C25.3533 41.1394 23.0124 39.5304 21.3334 37.3521H22.6667V34.7575H18.6667C18.3868 34.7575 18.1141 34.8432 17.887 35.0024C17.66 35.1616 17.4902 35.3863 17.4017 35.6446L16.0684 39.5365L18.5984 40.357L19.1275 38.8116C21.1276 41.4489 23.9323 43.4046 27.1417 44.4C30.3512 45.3955 33.8017 45.3799 37.0015 44.3556C40.2013 43.3312 42.9872 41.3502 44.9621 38.695C46.937 36.0398 48.0001 32.8459 48 29.5684H45.3334Z" fill="#AF1328"/>
<path d="M22.666 29.5674C22.666 31.3635 23.2134 33.1192 24.239 34.6126C25.2645 36.106 26.7222 37.2699 28.4276 37.9572C30.1331 38.6446 32.0097 38.8244 33.8202 38.474C35.6307 38.1236 37.2937 37.2587 38.599 35.9887C39.9043 34.7187 40.7932 33.1006 41.1533 31.339C41.5135 29.5775 41.3286 27.7516 40.6222 26.0922C39.9158 24.4329 38.7195 23.0146 37.1847 22.0168C35.6498 21.0189 33.8453 20.4863 31.9993 20.4863C29.5248 20.489 27.1525 21.4467 25.4028 23.1491C23.653 24.8515 22.6688 27.1598 22.666 29.5674ZM35.9993 24.3782V26.9728H31.3327C31.1559 26.9728 30.9863 27.0412 30.8613 27.1628C30.7363 27.2844 30.666 27.4494 30.666 27.6215C30.666 27.7935 30.7363 27.9585 30.8613 28.0801C30.9863 28.2018 31.1559 28.2701 31.3327 28.2701H32.666C33.4927 28.2693 34.2901 28.5674 34.9036 29.1065C35.517 29.6455 35.9027 30.3872 35.9858 31.1874C36.0689 31.9876 35.8434 32.7893 35.3531 33.4369C34.8629 34.0845 34.1428 34.5317 33.3327 34.6917V36.0539H30.666V34.7566H27.9993V32.162H32.666C32.8428 32.162 33.0124 32.0937 33.1374 31.972C33.2624 31.8504 33.3327 31.6854 33.3327 31.5134C33.3327 31.3413 33.2624 31.1763 33.1374 31.0547C33.0124 30.933 32.8428 30.8647 32.666 30.8647H31.3327C30.506 30.8655 29.7086 30.5674 29.0951 30.0284C28.4817 29.4893 28.096 28.7476 28.0129 27.9474C27.9298 27.1472 28.1553 26.3455 28.6456 25.6979C29.1358 25.0504 29.8559 24.6031 30.666 24.4431V23.0809H33.3327V24.3782H35.9993Z" fill="#AF1328"/>
</g>
<defs>
<clipPath id="clip0_56_2032">
<rect width="32" height="32" fill="white" transform="translate(16 16)"/>
</clipPath>
</defs>
</svg>
