<svg width="32" height="32" viewBox="0 0 32 32" fill="none" xmlns="http://www.w3.org/2000/svg">
<g clip-path="url(#clip0_104_2904)">
<path d="M27.6593 1.44467C26.9233 1.44467 26.326 2.042 26.326 2.778V3.88933C23.462 1.392 19.8093 0 15.9167 0C7.14 0 0 7.166 0 15.9733C0 16.7093 0.597333 17.3067 1.33333 17.3067C2.06933 17.3067 2.66667 16.7093 2.66667 15.9733C2.66667 8.636 8.61067 2.66667 15.9167 2.66667C19.1213 2.66667 22.132 3.80133 24.5053 5.83933H23.2833C22.5473 5.83933 21.95 6.43667 21.95 7.17267C21.95 7.90867 22.5473 8.506 23.2833 8.506H27.6593C28.3953 8.506 28.9927 7.90867 28.9927 7.17267V2.778C28.9927 2.042 28.3953 1.44467 27.6593 1.44467Z" fill="black"/>
<path d="M30.6671 14.6934C29.9311 14.6934 29.3338 15.2907 29.3338 16.0267C29.3338 23.364 23.3898 29.3334 16.0838 29.3334C12.9164 29.3334 9.93777 28.2267 7.57777 26.2334H8.85844C9.59444 26.2334 10.1918 25.636 10.1918 24.9C10.1918 24.164 9.59444 23.5667 8.85844 23.5667H4.48177C4.46977 23.5667 4.4591 23.57 4.44777 23.57C4.3971 23.5714 4.3471 23.578 4.29644 23.5854C4.2591 23.5907 4.22177 23.594 4.1851 23.6027C4.1411 23.6127 4.09777 23.6287 4.05444 23.6434C4.01444 23.6574 3.97377 23.6694 3.9351 23.6867C3.89844 23.7034 3.86377 23.7247 3.82844 23.7447C3.78644 23.7687 3.7451 23.792 3.70577 23.82C3.69577 23.8274 3.68444 23.8314 3.67444 23.8394C3.65177 23.8567 3.63444 23.878 3.6131 23.8967C3.57777 23.9274 3.54244 23.958 3.51044 23.9927C3.48044 24.0247 3.45444 24.058 3.42844 24.092C3.40244 24.126 3.3771 24.16 3.35377 24.196C3.33044 24.2334 3.31044 24.272 3.2911 24.3107C3.27177 24.3487 3.25377 24.3874 3.23844 24.4274C3.2231 24.4687 3.2111 24.51 3.19977 24.5527C3.1891 24.5934 3.17777 24.634 3.1711 24.676C3.1631 24.7234 3.15977 24.7707 3.15644 24.8187C3.15444 24.846 3.14844 24.8727 3.14844 24.9007V29.2954C3.14844 30.0314 3.74577 30.6287 4.48177 30.6287C5.21777 30.6287 5.8151 30.0314 5.8151 29.2954V28.2354C8.6571 30.6547 12.2551 32 16.0838 32C24.8604 32 32.0004 24.834 32.0004 16.0267C32.0004 15.2907 31.4031 14.6934 30.6671 14.6934Z" fill="black"/>
</g>
<defs>
<clipPath id="clip0_104_2904">
<rect width="32" height="32" fill="white"/>
</clipPath>
</defs>
</svg>
