<svg width="80" height="80" viewBox="0 0 80 80" fill="none" xmlns="http://www.w3.org/2000/svg">
<path d="M50.682 36.8181L50.6821 36.8182C52.4392 38.5756 52.4394 41.4247 50.6819 43.182C50.6818 43.1821 50.6818 43.1821 50.6818 43.1821L39.4319 54.432C38.5538 55.3101 37.3987 55.7502 36.25 55.7502C32.2835 55.7502 30.2129 50.9234 33.0681 48.0683C33.0681 48.0683 33.0682 48.0682 33.0682 48.0682L41.1361 40.0002L33.0682 31.9321C33.0682 31.9321 33.0682 31.9321 33.0681 31.932C31.3107 30.1747 31.3107 27.3254 33.0681 25.5681L50.682 36.8181ZM50.682 36.8181L39.432 25.5681C37.6748 23.8109 34.8256 23.8108 33.0682 25.568L50.682 36.8181ZM2 40C2 19.0132 19.0132 2 40 2C60.9868 2 78 19.0132 78 40C78 60.9868 60.9868 78 40 78C19.0132 78 2 60.9868 2 40Z" fill="white" stroke="#FE9090" stroke-width="4"/>
</svg>
