<svg width="64" height="64" viewBox="0 0 64 64" fill="none" xmlns="http://www.w3.org/2000/svg">
<circle cx="32" cy="32" r="32" fill="#FEF6F7"/>
<g clip-path="url(#clip0_56_2067)">
<path d="M45.8178 40.5725H40.7269C37.5189 40.5725 34.9088 37.9625 34.9088 34.7544C34.9088 31.5464 37.5189 28.9364 40.7269 28.9364H45.8178C46.2197 28.9364 46.545 28.6111 46.545 28.2091V26.0273C46.545 24.5022 45.3621 23.262 43.8675 23.1417L39.6908 15.8463C39.3037 15.1716 38.6787 14.6894 37.9308 14.4891C37.1865 14.2903 36.4081 14.3947 35.7419 14.7825L21.4238 23.1182H18.9091C17.3047 23.1182 16 24.4229 16 26.0273V43.4816C16 45.0859 17.3046 46.3906 18.9091 46.3906H43.636C45.2403 46.3906 46.545 45.086 46.545 43.4816V41.2998C46.545 40.8978 46.2197 40.5725 45.8178 40.5725ZM40.5927 20.3504L42.1774 23.1182H35.8386L40.5927 20.3504ZM24.3146 23.1182L36.4741 16.0395C36.803 15.847 37.1872 15.7959 37.5544 15.8939C37.9258 15.9933 38.2355 16.2334 38.428 16.5693L38.4295 16.572L27.1858 23.1182H24.3146Z" fill="#AF1328"/>
<path d="M45.8177 30.3906H40.7268C38.3206 30.3906 36.3633 32.348 36.3633 34.7542C36.3633 37.1604 38.3206 39.1178 40.7268 39.1178H45.8177C47.0208 39.1178 47.9995 38.1391 47.9995 36.936V32.5724C47.9995 31.3693 47.0208 30.3906 45.8177 30.3906ZM40.7268 36.2087C39.925 36.2087 39.2723 35.556 39.2723 34.7542C39.2723 33.9524 39.925 33.2997 40.7268 33.2997C41.5287 33.2997 42.1813 33.9524 42.1813 34.7542C42.1814 35.556 41.5287 36.2087 40.7268 36.2087Z" fill="#AF1328"/>
</g>
<defs>
<clipPath id="clip0_56_2067">
<rect width="32" height="32.8889" fill="white" transform="translate(16 16.4453)"/>
</clipPath>
</defs>
</svg>
