<svg width="24" height="24" viewBox="0 0 24 24" fill="none" xmlns="http://www.w3.org/2000/svg">
<path d="M11.9999 14.0004C11.8022 14.0004 11.6088 13.9418 11.4444 13.8319C11.2799 13.7221 11.1518 13.5659 11.0761 13.3832C11.0004 13.2004 10.9806 12.9994 11.0192 12.8054C11.0578 12.6114 11.1531 12.4333 11.2929 12.2934L21.2929 2.29343C21.3855 2.19921 21.4958 2.12424 21.6174 2.07287C21.7391 2.0215 21.8697 1.99475 22.0018 1.99415C22.1339 1.99355 22.2648 2.01912 22.3869 2.06939C22.509 2.11965 22.62 2.19361 22.7134 2.287C22.8068 2.38039 22.8807 2.49135 22.931 2.61348C22.9813 2.73561 23.0068 2.86649 23.0062 2.99856C23.0056 3.13063 22.9789 3.26127 22.9275 3.38294C22.8761 3.50461 22.8012 3.6149 22.7069 3.70743L12.7069 13.7074C12.6143 13.8006 12.5042 13.8745 12.3828 13.9248C12.2614 13.9751 12.1313 14.0008 11.9999 14.0004Z" fill="white"/>
<path d="M22 10C21.7349 9.99974 21.4807 9.89429 21.2932 9.70681C21.1057 9.51934 21.0003 9.26514 21 9V4H16C15.7348 4 15.4804 3.89464 15.2929 3.70711C15.1054 3.51957 15 3.26522 15 3C15 2.73478 15.1054 2.48043 15.2929 2.29289C15.4804 2.10536 15.7348 2 16 2H22C22.2651 2.00026 22.5193 2.10571 22.7068 2.29319C22.8943 2.48066 22.9997 2.73486 23 3V9C22.9997 9.26514 22.8943 9.51934 22.7068 9.70681C22.5193 9.89429 22.2651 9.99974 22 10ZM4 22C3.20462 21.9991 2.44206 21.6828 1.87964 21.1204C1.31722 20.5579 1.00087 19.7954 1 19V5C1.00087 4.20462 1.31722 3.44206 1.87964 2.87964C2.44206 2.31722 3.20462 2.00087 4 2H11C11.2652 2 11.5196 2.10536 11.7071 2.29289C11.8946 2.48043 12 2.73478 12 3C12 3.26522 11.8946 3.51957 11.7071 3.70711C11.5196 3.89464 11.2652 4 11 4H4C3.73486 4.00026 3.48066 4.10571 3.29319 4.29319C3.10571 4.48066 3.00026 4.73486 3 5V19C3.00026 19.2651 3.10571 19.5193 3.29319 19.7068C3.48066 19.8943 3.73486 19.9997 4 20H20C20.2651 19.9997 20.5193 19.8943 20.7068 19.7068C20.8943 19.5193 20.9997 19.2651 21 19V14C21 13.7348 21.1054 13.4804 21.2929 13.2929C21.4804 13.1054 21.7348 13 22 13C22.2652 13 22.5196 13.1054 22.7071 13.2929C22.8946 13.4804 23 13.7348 23 14V19C22.9991 19.7954 22.6828 20.5579 22.1204 21.1204C21.5579 21.6828 20.7954 21.9991 20 22H4Z" fill="white"/>
</svg>
