<svg width="64" height="64" viewBox="0 0 64 64" fill="none" xmlns="http://www.w3.org/2000/svg">
<circle cx="32" cy="32" r="32" fill="#FEF6F7"/>
<g clip-path="url(#clip0_56_2042)">
<path d="M24.5 27.5156C22.9491 27.5156 21.6875 28.7773 21.6875 30.3281V37.9531C21.6875 39.504 22.9491 40.7656 24.5 40.7656C26.0509 40.7656 27.3125 39.504 27.3125 37.9531V30.3281C27.3125 28.7773 26.0509 27.5156 24.5 27.5156Z" fill="#AF1328"/>
<path d="M19.8125 30.3267C19.8125 30.0563 19.8482 29.795 19.8924 29.5371C18.7625 29.9023 17.9375 30.9518 17.9375 32.2017V36.0767C17.9375 37.3267 18.7625 38.3762 19.8924 38.7414C19.8482 38.4834 19.8125 38.2222 19.8125 37.9517V30.3267Z" fill="#AF1328"/>
<path d="M39.5 27.5156C37.9491 27.5156 36.6875 28.7773 36.6875 30.3281V37.9531C36.6875 39.504 37.9491 40.7656 39.5 40.7656C39.7819 40.7656 40.0489 40.7114 40.3057 40.6339C39.9567 41.7907 38.8941 42.6406 37.625 42.6406H34.6398C34.2515 41.5518 33.2206 40.7656 32 40.7656C30.4491 40.7656 29.1875 42.0273 29.1875 43.5781C29.1875 45.129 30.4491 46.3906 32 46.3906C33.2206 46.3906 34.2515 45.6045 34.6398 44.5156H37.625C40.2096 44.5156 42.3125 42.4127 42.3125 39.8281V37.9531V30.3281C42.3125 28.7773 41.0509 27.5156 39.5 27.5156Z" fill="#AF1328"/>
<path d="M44.1074 29.5371C44.1516 29.795 44.1873 30.0563 44.1873 30.3267V37.9517C44.1873 38.2222 44.1516 38.4834 44.1074 38.7414C45.2373 38.3762 46.0623 37.3267 46.0623 36.0767V32.2017C46.0623 30.9518 45.2373 29.9023 44.1074 29.5371Z" fill="#AF1328"/>
<path d="M32 14.3906C24.2455 14.3906 17.9375 20.6986 17.9375 28.4531V28.4771C18.4961 28.0542 19.1423 27.7448 19.8554 27.6062C20.2936 21.2813 25.5659 16.2656 32 16.2656C38.4341 16.2656 43.7064 21.2813 44.1446 27.6061C44.8576 27.7447 45.5039 28.0542 46.0625 28.477V28.4531C46.0625 20.6986 39.7545 14.3906 32 14.3906Z" fill="#AF1328"/>
</g>
<defs>
<clipPath id="clip0_56_2042">
<rect width="32" height="32.8889" fill="white" transform="translate(16 16.4453)"/>
</clipPath>
</defs>
</svg>
