<svg width="64" height="64" viewBox="0 0 64 64" fill="none" xmlns="http://www.w3.org/2000/svg">
<circle cx="32" cy="32" r="32" fill="#FDEDC2"/>
<g clip-path="url(#clip0_823_63241)">
<path d="M39.5222 44.9756C36.3651 44.9756 33.3523 43.7939 31.0389 41.6482C30.7981 41.4248 30.784 41.0486 31.0073 40.8077C31.2306 40.567 31.6068 40.5528 31.8477 40.7761C33.9405 42.7172 36.6659 43.7862 39.5222 43.7862C45.7465 43.7862 50.8105 38.7224 50.8105 32.4979C50.8105 32.1694 51.0767 31.9033 51.4051 31.9033C51.7335 31.9033 51.9997 32.1695 51.9997 32.4979C51.9997 39.3782 46.4024 44.9756 39.5222 44.9756Z" fill="#D3CDBF"/>
<path d="M39.2429 16.1434C37.9488 16.1404 35.5475 16.1466 33.2235 16.1484C31.9207 16.1495 30.6715 16.6674 29.7504 17.5888L13.5472 33.7919C11.4843 35.8548 11.4843 39.1995 13.5472 41.2624L18.5947 46.3099C20.6577 48.3728 24.0023 48.3728 26.0653 46.3099L42.2684 30.1068C43.1896 29.1856 43.7077 27.9365 43.7087 26.6337C43.7105 24.3096 43.7168 21.9084 43.7138 20.6143C43.711 19.3945 43.1702 18.2884 42.37 17.4871C41.5687 16.687 40.4627 16.1461 39.2429 16.1434ZM40.7185 20.614C40.7185 21.4275 40.0567 22.0893 39.2432 22.0893C38.4296 22.0893 37.7679 21.4275 37.7679 20.614C37.7679 19.8005 38.4296 19.1387 39.2432 19.1387C40.0567 19.1387 40.7185 19.8006 40.7185 20.614Z" fill="#FF5368"/>
<path d="M42.3702 17.4874C41.812 16.9299 41.1055 16.4991 40.316 16.2876C39.7834 17.1981 39.9068 18.3867 40.6871 19.1681C41.098 19.5795 41.3342 20.1088 41.3355 20.62C41.3373 21.4446 41.3355 22.6981 41.3334 24.1497C41.3323 24.9505 41.3311 25.7963 41.3303 26.6321C41.3298 27.3094 41.0656 27.9462 40.5867 28.4252L24.3837 44.6283C23.2516 45.7604 21.4091 45.7604 20.277 44.6283L15.2295 39.5808C14.4307 38.7819 13.2055 38.6706 12.2871 39.2457C12.5399 39.9825 12.9596 40.6747 13.5475 41.2626L18.595 46.3102C20.658 48.3731 24.0026 48.3731 26.0655 46.3102L42.2687 30.1071C43.1899 29.1857 43.708 27.9367 43.709 26.6339C43.7108 24.3099 43.7171 21.9086 43.7141 20.6146C43.7112 19.3948 43.1704 18.2888 42.3702 17.4874Z" fill="#C5324F"/>
<path d="M51.4057 33.0913C51.0772 33.0913 50.8111 32.8252 50.8111 32.4967C50.8111 26.424 46.0622 21.4701 39.9997 21.2183C39.6715 21.2046 39.4167 20.9277 39.4302 20.5995C39.4439 20.2713 39.7206 20.0141 40.049 20.03C43.2704 20.1637 46.2779 21.5198 48.5175 23.8487C50.7634 26.1841 52.0003 29.2554 52.0003 32.4966C52.0003 32.8252 51.734 33.0913 51.4057 33.0913Z" fill="#D3CDBF"/>
<path d="M18.2804 37.8928C17.3532 38.8199 17.3531 40.3289 18.2803 41.2562C19.2078 42.1834 20.7166 42.1834 21.6439 41.2562C22.5711 40.3289 22.5712 38.82 21.6439 37.8927C20.7166 36.9654 19.2078 36.9655 18.2804 37.8928ZM20.803 40.4153C20.3393 40.879 19.585 40.879 19.1213 40.4153C18.6578 39.9517 18.6576 39.1974 19.1214 38.7337C19.585 38.2701 20.3393 38.2701 20.803 38.7336C21.2666 39.1971 21.2666 39.9517 20.803 40.4153Z" fill="#FFF9EB"/>
<path d="M23.5769 33.4359C23.3447 33.2037 22.9683 33.2037 22.7361 33.4359C22.5038 33.6681 22.5038 34.0445 22.736 34.2766L24.258 35.7986C24.5779 36.1185 24.574 36.6428 24.2495 36.9673C23.9251 37.2919 23.4007 37.2958 23.0808 36.9758L21.5589 35.4537C21.3267 35.2216 20.9502 35.2218 20.7181 35.4539C20.4859 35.6861 20.4859 36.0625 20.7181 36.2947L22.2399 37.8167C23.0237 38.6003 24.3022 38.5966 25.0904 37.8083C25.8786 37.0201 25.8824 35.7416 25.0988 34.9578L23.5769 33.4359Z" fill="#FFF9EB"/>
<path d="M26.0348 31.8201L26.5674 31.2875C26.7997 31.0553 26.7998 30.6789 26.5673 30.4466C26.3351 30.2144 25.9587 30.2144 25.7266 30.4467L23.8207 32.3525C23.5884 32.5848 23.5884 32.9612 23.8206 33.1933C24.053 33.4257 24.4294 33.4257 24.6616 33.1934L25.1941 32.6608L27.2962 34.7629C27.5286 34.9953 27.9049 34.9952 28.1371 34.7629C28.3693 34.5307 28.3694 34.1544 28.137 33.9221L26.0348 31.8201Z" fill="#FFF9EB"/>
<path d="M30.6267 30.5915L29.7578 31.4604L27.6556 29.3582C27.4234 29.126 27.047 29.126 26.8148 29.3582C26.5826 29.5905 26.5826 29.9669 26.8148 30.199L29.3373 32.7216C29.5697 32.9539 29.946 32.9538 30.1781 32.7217L31.4675 31.4323C31.6997 31.2 31.6998 30.8237 31.4675 30.5914C31.2353 30.3594 30.8589 30.3593 30.6267 30.5915Z" fill="#FFF9EB"/>
<path d="M33.0517 28.1655L32.1829 29.0344L31.7624 28.614L32.295 28.0815C32.5272 27.8492 32.5271 27.4729 32.2948 27.2406C32.0626 27.0083 31.6863 27.0083 31.454 27.2406L30.9214 27.7732L30.501 27.3527L31.3699 26.4838C31.6022 26.2515 31.6022 25.8752 31.3697 25.6429C31.1375 25.4108 30.7613 25.4106 30.5289 25.6429L29.2396 26.9323C29.0074 27.1645 29.0074 27.5409 29.2396 27.7731L31.7621 30.2957C31.9945 30.528 32.3708 30.528 32.603 30.2957L33.8923 29.0064C34.1246 28.7741 34.1246 28.3979 33.8922 28.1656C33.6604 27.9334 33.2839 27.9334 33.0517 28.1655Z" fill="#FFF9EB"/>
<path d="M35.9251 26.1341L33.8229 24.0321L34.3556 23.4994C34.5878 23.2672 34.5878 22.8909 34.3555 22.6585C34.1233 22.4263 33.7469 22.4263 33.5147 22.6586L31.6088 24.5644C31.3765 24.7968 31.3765 25.1732 31.6087 25.4053C31.8412 25.6376 32.2174 25.6376 32.4497 25.4053L32.9823 24.8727L35.0843 26.9749C35.3167 27.2073 35.6931 27.2071 35.9252 26.9749C36.1572 26.7428 36.1574 26.3664 35.9251 26.1341Z" fill="#FFF9EB"/>
</g>
<defs>
<clipPath id="clip0_823_63241">
<rect width="40" height="40" fill="white" transform="translate(12 12)"/>
</clipPath>
</defs>
</svg>
