<svg width="40" height="40" viewBox="0 0 40 40" fill="none" xmlns="http://www.w3.org/2000/svg">
<g clip-path="url(#clip0_22_738)">
<path d="M20 40C31.0457 40 40 31.0457 40 20C40 8.9543 31.0457 0 20 0C8.9543 0 0 8.9543 0 20C0 31.0457 8.9543 40 20 40Z" fill="#FF7069"/>
<path d="M20.3545 28.399L24.4236 25.9444C25.3661 25.3751 25.8701 26.4671 25.3008 26.7844L22.1184 28.5389L20.3545 28.399Z" fill="#FEC982"/>
<path d="M22.1377 28.1756L26.5054 25.4878C27.532 24.8532 28.0733 26.1411 27.5134 26.4677L24.5176 28.2222L22.1378 28.1849V28.1756H22.1377Z" fill="#FFD190"/>
<path d="M11.582 29.1093L3.29461 31.0038C2.04406 29.0999 1.10141 26.9721 0.550781 24.6949L10.9008 24.0137C12.562 23.7804 14.0926 23.7897 14.7738 24.163C15.9777 24.8349 15.8471 26.3001 18.6002 27.0655L22.5293 27.7467L28.8382 26.1975C29.9955 25.9922 30.2288 27.2894 29.4635 27.5974L20.9894 30.6026C19.8509 31.0038 17.107 30.0798 11.582 29.1093Z" fill="#FFD190"/>
<path d="M23.7802 27.4385C24.2095 27.8957 23.3509 28.1478 22.1283 28.4091C21.251 28.5957 20.0751 28.8197 19.5058 28.9597C18.4046 28.9971 15.5768 28.3251 13.5889 27.5971C14.6061 27.5785 18.8618 28.8477 19.5338 28.7171C20.2057 28.5864 23.4255 27.7371 23.6402 27.6158C23.8548 27.4944 23.7521 27.5131 23.7802 27.4385Z" fill="#F0B97D"/>
<path d="M7.25102 23.4805L8.36164 31.7026L4.32055 32.4119C2.40734 30.0041 1.04477 27.1389 0.410156 24.0124L7.25102 23.4805Z" fill="#6B7F9E"/>
<path d="M8.74523 23.5366L9.82781 31.2455L8.33461 31.4414L7.25195 23.7233L8.74523 23.5366Z" fill="white"/>
<path d="M7.63383 30.5843C7.67118 30.8922 7.46586 31.1722 7.16719 31.2096C6.86852 31.2469 6.5886 31.0322 6.55126 30.7243C6.51391 30.4163 6.71922 30.1363 7.0179 30.0989C7.31657 30.0616 7.59649 30.2763 7.63383 30.5843Z" fill="#8597B1"/>
<path d="M13.7379 23.8925C15.8004 23.5659 17.1723 24.7791 18.2083 26.235L20.0841 26.6737C20.0841 26.6737 21.8387 26.291 22.7813 26.5803C23.7146 26.8696 24.0039 27.6255 23.6399 27.8309C23.2759 28.0362 20.2055 28.5775 19.5335 28.7081C18.8523 28.8387 15.0258 28.0455 13.5979 27.5975C12.17 27.1588 11.3301 24.4057 13.7379 23.883V23.8925Z" fill="#FFD190"/>
<path d="M28.8196 27.8199L29.8182 27.4933C29.9395 27.4559 29.8368 27.1387 29.6782 27.1387C29.5195 27.1387 28.6143 27.3627 28.6143 27.3627C28.7263 27.484 28.8476 27.6613 28.8196 27.8199Z" fill="#FFF1DF"/>
<path d="M22.296 28.0733L23.5652 27.7933C23.6678 27.7746 23.5839 27.28 23.3412 27.1773C23.0985 27.084 22.0439 27.2987 22.0439 27.2987C22.1279 27.476 22.2679 27.7933 22.2866 28.064L22.296 28.0733Z" fill="white"/>
<path d="M20.5506 15.7071L23.3131 15.4924C23.705 15.4645 24.7503 14.8112 24.7503 14.8112L23.7517 13.1313L21.1759 12.8233L19.188 14.6525L18.4227 16.2204C17.9654 17.0416 16.4628 16.883 16.8268 15.8377L17.6948 13.2152C17.6948 13.2152 19.8693 10.8727 20.6719 10.5461C21.4745 10.2195 27.1208 9.93945 27.1208 9.93945C27.1208 9.93945 31.7405 12.4593 33.4577 13.5512L38.908 13.4766C39.4213 14.9698 39.7666 16.5377 39.9159 18.1616L33.047 18.0029C33.047 18.0029 28.6793 18.8522 27.1954 18.6375C25.7022 18.4228 23.6396 17.7789 23.6396 17.7789C23.6396 17.7789 21.0358 17.8255 20.2985 17.4896C19.2533 17.1256 19.3373 15.8004 20.5599 15.707H20.5506V15.7071Z" fill="#FFD190"/>
<path d="M16.8645 15.52C16.9111 15.5387 17.1632 15.6414 17.1632 15.6414L16.9112 16.4067C16.9112 16.4067 16.6125 16.5467 16.6593 16.22C16.7059 15.8934 16.8646 15.5107 16.8646 15.5107V15.52H16.8645Z" fill="white"/>
<path d="M21.4002 15.6703C21.3723 15.549 21.3442 15.4276 21.3069 15.3063C21.1295 14.7557 20.8309 14.2611 20.4483 13.8504C19.7484 13.1131 18.7684 12.6558 17.6765 12.6558C15.5673 12.6558 13.8594 14.3636 13.8594 16.4729C13.8594 18.5821 15.5673 20.29 17.6765 20.29C18.983 20.29 20.1403 19.6367 20.8216 18.6287C21.083 18.2554 21.2696 17.8354 21.3816 17.3782C21.4096 17.2661 21.4283 17.1542 21.447 17.0422C21.4749 16.8555 21.4936 16.6595 21.4936 16.4636C21.4936 16.1836 21.4656 15.9129 21.4096 15.6516L21.4002 15.6703Z" fill="#FFE356"/>
<path d="M21.2229 15.707C21.1949 15.5949 21.1669 15.4737 21.1295 15.3616C20.9616 14.839 20.6816 14.3723 20.3083 13.9804C19.6456 13.2805 18.703 12.8418 17.6671 12.8418C15.6605 12.8418 14.0273 14.475 14.0273 16.4816C14.0273 18.4881 15.6605 20.1213 17.6671 20.1213C18.9084 20.1213 20.0096 19.496 20.6629 18.5441C20.9055 18.1895 21.0922 17.7881 21.1948 17.3495C21.2228 17.2468 21.2415 17.1348 21.2602 17.0228C21.2881 16.8455 21.2975 16.6588 21.2975 16.4722C21.2975 16.2016 21.2695 15.9495 21.2135 15.6976L21.2229 15.707Z" fill="#FCD34E"/>
<path d="M17.6668 13.6348C16.0989 13.6348 14.8203 14.904 14.8203 16.4812C14.8203 18.0491 16.0989 19.3277 17.6668 19.3277C19.2347 19.3277 20.5133 18.0491 20.5133 16.4812C20.5133 14.9134 19.2441 13.6348 17.6668 13.6348ZM17.6668 13.9895C19.0387 13.9895 20.1586 15.1094 20.1586 16.4812C20.1586 17.8531 19.0387 18.973 17.6668 18.973C16.2949 18.973 15.175 17.8531 15.175 16.4812C15.175 15.1094 16.2949 13.9895 17.6668 13.9895Z" fill="#FFE356"/>
<path d="M17.4428 18.2268V17.8254C17.1535 17.8162 16.8828 17.7321 16.7148 17.6388L16.8455 17.1348C17.0228 17.2375 17.2748 17.3215 17.5548 17.3215C17.7974 17.3215 17.9654 17.2281 17.9654 17.0601C17.9654 16.9015 17.8254 16.7988 17.5174 16.6869C17.0602 16.5376 16.7521 16.3229 16.7521 15.9029C16.7521 15.5296 17.0134 15.2309 17.4707 15.1469V14.7456H17.8907V15.1189C18.18 15.1282 18.3666 15.1936 18.5066 15.2589L18.3853 15.7442C18.2733 15.6976 18.0773 15.5949 17.7694 15.5949C17.4894 15.5949 17.4054 15.7162 17.4054 15.8376C17.4054 15.9776 17.5547 16.0708 17.9187 16.2015C18.4227 16.3789 18.628 16.6122 18.628 17.0041C18.628 17.3868 18.3573 17.704 17.872 17.7974V18.2361H17.452L17.4428 18.2268Z" fill="#FFE356"/>
<path d="M20.5504 15.7079C21.773 15.6146 22.9116 15.5119 23.3129 15.4933C23.7049 15.4653 24.7502 14.812 24.7502 14.812C24.7502 14.812 27.466 15.9319 27.2887 17.0612C27.1114 18.1905 26.8687 18.2278 26.5607 18.5358C25.1795 18.2651 23.6302 17.7891 23.6302 17.7891C23.6302 17.7891 21.0264 17.8358 20.2891 17.4998C19.2439 17.1358 19.3279 15.8106 20.5505 15.7172V15.7079H20.5504Z" fill="#FFD190"/>
<path d="M33.7373 12.4963L34.1946 19.7385L36.1079 19.6172L35.6505 12.375L33.7373 12.4963Z" fill="white"/>
<path d="M35.315 11.6295L35.875 20.3929L40 20.3275C40 20.2155 40 20.1035 40 19.9915C40 16.9117 39.3 13.9999 38.0588 11.3867L35.3057 11.62L35.315 11.6295Z" fill="#6B7F9E"/>
<path d="M19.7575 16.7527L21.0828 16.7153V17.5179C21.0828 17.5179 19.9349 17.5645 19.7202 17.3873C19.5055 17.2006 19.5989 16.818 19.7575 16.762V16.7527Z" fill="white"/>
<path d="M37.7413 19.1873C37.7786 19.4952 37.5733 19.7752 37.2746 19.8126C36.9759 19.8499 36.696 19.6352 36.6587 19.3273C36.6213 19.0193 36.8266 18.7393 37.1253 18.702C37.4239 18.6646 37.7039 18.8793 37.7413 19.1873Z" fill="#8597B1"/>
</g>
<defs>
<clipPath id="clip0_22_738">
<rect width="40" height="40" fill="white"/>
</clipPath>
</defs>
</svg>
