<svg width="40" height="40" viewBox="0 0 40 40" fill="none" xmlns="http://www.w3.org/2000/svg">
<path d="M34.1249 13.0081C34.1416 13.3164 34.1416 13.6248 34.1416 13.9164C34.1375 15.8139 33.8608 17.701 33.3199 19.5198C32.1793 23.7118 29.6748 27.4044 26.2018 30.0144C22.7289 32.6245 18.4854 34.0033 14.1416 33.9331C10.3184 33.9374 6.57543 32.8366 3.36328 30.7631C3.92009 30.8316 4.48061 30.8656 5.04161 30.8648C8.20571 30.8677 11.2786 29.8051 13.7649 27.8481C12.3006 27.8206 10.8813 27.337 9.70478 26.4647C8.5283 25.5923 7.65326 24.3747 7.20161 22.9814C7.63777 23.0562 8.07914 23.0963 8.52161 23.1014C9.15279 23.1038 9.78116 23.0174 10.3883 22.8448C8.88451 22.5466 7.52022 21.763 6.50493 20.6143C5.48965 19.4657 4.87953 18.0155 4.76828 16.4864C4.74009 16.3107 4.72893 16.1327 4.73495 15.9548V15.8698C5.71144 16.413 6.8046 16.7126 7.92161 16.7431C6.95945 16.1024 6.17084 15.2335 5.62615 14.2139C5.08146 13.1943 4.79761 12.0557 4.79995 10.8998C4.79886 9.65488 5.12411 8.43145 5.74328 7.35145C7.50837 9.52656 9.7118 11.3055 12.2101 12.5725C14.7084 13.8394 17.4455 14.566 20.2433 14.7048C19.8903 13.1971 20.0449 11.6152 20.683 10.2044C21.321 8.79354 22.4069 7.63278 23.7721 6.90222C25.1374 6.17165 26.7055 5.91212 28.2333 6.16392C29.7611 6.41571 31.1631 7.16475 32.2216 8.29478C33.7997 7.98353 35.3127 7.40403 36.6949 6.58145C36.7543 7.77466 36.5552 8.96661 36.1114 10.0758C35.6675 11.185 34.9894 12.1852 34.1233 13.0081H34.1249Z" fill="#F5D8D8"/>
</svg>
