<svg width="16" height="16" viewBox="0 0 16 16" fill="none" xmlns="http://www.w3.org/2000/svg">
<g clip-path="url(#clip0_56_949)">
<path d="M11.6714 9.53746L11.6654 9.58746C10.1994 8.8568 10.0461 8.75946 9.85676 9.04346C9.72543 9.24013 9.34276 9.68613 9.22743 9.81813C9.11076 9.94813 8.99476 9.95813 8.79676 9.86813C8.59676 9.76813 7.95476 9.55813 7.19476 8.87813C6.60276 8.34813 6.20543 7.69813 6.08809 7.49813C5.89276 7.1608 6.30143 7.1128 6.67343 6.4088C6.74009 6.2688 6.70609 6.1588 6.65676 6.05946C6.60676 5.95946 6.20876 4.97946 6.04209 4.5888C5.88209 4.19946 5.71743 4.2488 5.59409 4.2488C5.21009 4.21546 4.92943 4.2208 4.68209 4.47813C3.60609 5.6608 3.87743 6.8808 4.79809 8.17813C6.60743 10.5461 7.57143 10.9821 9.33409 11.5875C9.81009 11.7388 10.2441 11.7175 10.5874 11.6681C10.9701 11.6075 11.7654 11.1875 11.9314 10.7175C12.1014 10.2475 12.1014 9.85746 12.0514 9.76746C12.0021 9.67746 11.8714 9.62746 11.6714 9.53746Z" fill="white"/>
<path d="M13.68 2.29865C8.554 -2.65669 0.0706667 0.937311 0.0673333 7.92798C0.0673333 9.32531 0.433333 10.688 1.13067 11.8913L0 15.9993L4.22333 14.898C9.49333 17.7446 15.9973 13.9646 16 7.93198C16 5.81465 15.1733 3.82198 13.67 2.32465L13.68 2.29865ZM14.668 7.90998C14.664 12.9986 9.078 16.1766 4.66 13.5793L4.42 13.4366L1.92 14.0866L2.59 11.6566L2.43067 11.4066C-0.318667 7.02998 2.84 1.30998 8.048 1.30998C9.81733 1.30998 11.478 1.99998 12.7287 3.24998C13.9787 4.48931 14.668 6.14998 14.668 7.90998Z" fill="white"/>
</g>
<defs>
<clipPath id="clip0_56_949">
<rect width="16" height="16" fill="white"/>
</clipPath>
</defs>
</svg>
